<?xml version="1.0" encoding="utf-8"?>
<!-- Generator: Adobe Illustrator 28.0.0, SVG Export Plug-In . SVG Version: 6.00 Build 0)  -->
<svg version="1.0" id="katman_1" xmlns="http://www.w3.org/2000/svg" xmlns:xlink="http://www.w3.org/1999/xlink" x="0px" y="0px"
	 viewBox="0 0 670.21 680.8" style="enable-background:new 0 0 670.21 680.8;" xml:space="preserve">
<style type="text/css">
	.st0{fill:#071924;}
	.st1{fill:#FFFFFF;}
	.st2{fill:#E9F2F7;}
</style>
<path class="st0" d="M624.22,509.2c-23.32,40.26-53.21,74.03-89.66,101.3c-51.12,38.25-113.4,63.32-177.09,69.28
	c-6.69,0.63-13.15,0.97-19.38,1.02c-1.03,0.01-1.15-0.3-0.34-0.95c16.5-13.1,32.97-26.27,48.67-40.37c0.32-0.28,0.71-0.48,1.12-0.57
	c100.91-21.95,188.22-91.02,225.53-189.19c13.19-34.93,20.13-71.46,20.61-108.78c0.45-34.94-5.12-67.61-16.44-101.8
	c-9.4-28.4-22.5-53.86-39.29-76.38c-21.12-29.2-46.61-53.49-76.13-74.12C371.23-2.6,189.88,28.98,95.84,156.53
	c-0.09,0.11-0.13,0.25-0.14,0.4c-33.19,44.66-54.43,98.53-58.29,154.2c-2.05,29.65-0.93,60.41,5.34,89.54
	c8.6,39.92,24.63,78.68,48.41,112.02c35.52,52.14,88.02,91.47,147.06,114.07c13.06,5,26.44,8.93,40.13,11.79
	c0.61,0.13,1.27,0.49,1.96,1.08c16.26,13.94,33.2,26.9,49.73,40.47c0.26,0.21,0.11,0.62-0.22,0.62
	c-62.47-0.42-121.64-22.07-173.5-54.91c-9.93-6.59-17.53-11.9-22.79-15.94c-39.03-29.99-70.02-68.78-93.75-111.72
	c-7.13-12.89-13.21-26.25-18.25-40.09C3.26,407.91-3.38,356.33,1.61,303.31c7.84-83.36,48.11-160.16,108.92-216.58
	c57.99-53.79,136.04-83.47,214.2-86.5c59.01-2.29,118.81,12.97,170.36,40.94c33.59,18.22,64.07,43.55,89.74,72.16
	c46.3,51.58,74.73,116.71,83.05,185.15C676.51,369.5,661.05,447.5,624.22,509.2z"/>
<path class="st1" d="M577.95,162.76c-0.26,0.77-1.25,1.34-2.98,1.71c-0.19,0.04-0.37,0.14-0.5,0.29l-2.39,2.76
	c-0.19,0.23-0.28,0.48-0.26,0.77c0.2,2.81-3.29,3.82-5.3,4.84c-0.71,0.36-0.97,0.8-0.79,1.33c0.08,0.23,0.03,0.44-0.14,0.61
	c-0.09,0.09-0.2,0.17-0.34,0.23c-0.32,0.13-0.56,0.35-0.73,0.66c-0.3,0.57-0.78,0.93-1.44,1.07c-0.75,0.15-0.86-0.05-0.33-0.62
	c0.11-0.12,0.16-0.39,0.17-0.82c0.01-0.88-0.98-1.39-1.69-0.87l-2.37,1.76c-0.33,0.24-0.57,0.17-0.73-0.2l-0.57-1.35
	c-0.11-0.26-0.3-0.44-0.57-0.54c-0.33-0.11-0.54-0.06-0.64,0.16c-0.22,0.49-0.32,0.78-0.29,0.89c0.28,1.21,0.05,2.25-0.68,3.11
	c-0.27,0.32-0.57,0.36-0.91,0.12c-0.22-0.15-0.46-0.19-0.73-0.11c-0.31,0.09-0.52,0.3-0.62,0.61c-0.63,1.96-0.84,3.95-0.63,5.97
	c0.03,0.32-0.05,0.61-0.25,0.86c-1.48,1.87-0.25,3.17-0.15,4.78c0.19,3.11-0.24,6.12-0.05,9.24c0.1,1.66-0.58,3.67,0.21,5.69
	c0.09,0.23,0.26,0.35,0.51,0.35h0.43c0.32,0,0.47,0.16,0.45,0.48l-0.05,0.69c-17.13-3.07-31.67-10.55-43.62-22.45
	c-0.33-0.33-0.87-0.34-1.21-0.01c-4.44,4.3-9.31,8.7-14.45,11.75c-16.21,9.61-36.57,13.64-55.39,12.18
	c-0.46-0.04-0.84,0.35-0.79,0.81l2.31,22.57c0.04,0.38,0.25,0.61,0.63,0.69c4.37,0.85,8.67,1.96,12.92,3.32
	c10.65,3.41,21.39,6.52,32.23,9.33c0.31,0.08,0.56-0.02,0.73-0.3c3.65-6.08,8.92-10.11,15.8-12.1c0.9-0.25,1.65-0.36,2.24-0.32
	c0.71,0.05,1.08-0.28,1.09-0.99l0.61-33.06c0.01-0.7,0.37-1.09,1.07-1.16l2.5-0.26c0.71-0.07,1.08,0.25,1.1,0.97l0.9,33.52
	c0.01,0.46,0.36,0.83,0.8,0.87c8.33,0.79,14.73,5.14,19.2,13.07c0,0.15,0.09,0.26,0.27,0.33c0.29,0.1,0.55,0.06,0.79-0.13
	c0.7-0.55,1.65-0.61,2.84-0.18c0.37,0.14,0.53,0.57,0.35,0.91l-0.2,0.37c-0.12,0.23-0.05,0.35,0.21,0.35h0.43
	c0.33,0,0.46,0.16,0.41,0.47c-0.07,0.37-0.05,0.71,0.04,1c0.11,0.35,0.01,0.62-0.31,0.81c-0.41,0.25-0.68,0.62-0.79,1.11l-0.84,0.29
	c-0.32,0.11-0.46,0.33-0.41,0.67c0.59,4.27,0.57,8.53-0.04,12.8c-0.06,0.43,0.13,0.66,0.57,0.68l25.29,1.19
	c0.93,0.04,1.75,0.61,2.12,1.47l0.22,0.52c0.57,1.34,0.13,2.04-1.32,2.11c-9.71,0.44-19.43,0.31-29.14-0.38
	c-0.84-0.06-1.65,0.33-2.13,1.02c-4.27,6.15-10.15,9.77-17.64,10.86c-0.17,0.02-0.29,0.16-0.29,0.33l-1.3,63.06
	c-0.01,0.53-0.28,0.81-0.81,0.82l-3.07,0.09c-0.43,0.01-0.78-0.34-0.79-0.77l-0.74-62.81c-0.01-0.35-0.18-0.57-0.51-0.67
	c-7.3-2.29-12.22-4.39-16.56-11.03c-0.53-0.81-1.46-1.25-2.41-1.16c-10.23,0.97-20.49,1.16-30.78,0.57
	c-0.78-0.04-1.27-0.85-0.96-1.56l0.17-0.4c0.54-1.25,1.49-1.91,2.86-1.97l25.75-1.13c0.49-0.02,0.85-0.45,0.8-0.93
	c-0.4-3.65-0.51-7.3-0.33-10.95c0.03-0.59,0.18-1.04,0.55-1.47c0.51-0.59,0.4-0.99-0.35-1.21l-42.04-12.56
	c-0.34-0.1-0.67,0.17-0.66,0.52c0.41,9.48,3.25,19.99,5.53,29.21c5.67,22.9,15.86,43.49,30.57,61.76c0.03,0.43-0.05,0.73-0.24,0.89
	c-0.29,0.24-0.51,0.18-0.64-0.18l-0.31-0.84c-0.01-0.04-0.07-0.03-0.07,0.01v0.38c0,0.21-0.08,0.39-0.25,0.53
	c-0.76,0.62-1.41,1.33-1.96,2.13c-1.02,1.49-2.67,2.97-3.08,5.06c-0.07,0.33-0.19,0.63-0.38,0.9c-0.88,1.25-1.63,2.84-3.17,3.69
	c-1.42,0.78-3.56,0.75-5.31,1.15c-0.39,0.09-0.59-0.07-0.59-0.47v-1.04c0-0.28-0.14-0.45-0.41-0.51l-0.41-0.08
	c-0.19-0.04-0.36,0.01-0.5,0.16c-0.35,0.37-0.51,0.79-0.46,1.25c0.03,0.35-0.12,0.57-0.46,0.66c-1.07,0.29-1.82,0.94-2.23,1.95
	c-0.13,0.33-0.32,0.62-0.55,0.88c-1.3,1.4-2.87,2.21-4.72,2.44c-0.33,0.04-0.61,0.17-0.85,0.39c-2.2,2.06-6.24,4.04-5.47,7.63
	c0.05,0.27-0.04,0.48-0.28,0.61l-0.35,0.18c-0.33,0.18-0.53,0.45-0.6,0.81l-1.02,5.06c-5.54-4.35-10.74-8.96-15.61-13.84
	c-10.16-10.18-20.47-20.57-30.94-31.16c-0.53-0.53-1.44-0.23-1.54,0.52l-4.52,33.89l-0.66,0.21c-0.03,0.01-0.05,0-0.07-0.02
	c-0.09-0.1-0.13-0.17-0.12-0.22c0-0.05,0.02-0.09,0.02-0.08c0.11,0.75,0.11,1.49-0.02,2.2c-0.06,0.32-0.28,0.58-0.58,0.7l-3.16,1.23
	c-0.35,0.13-0.72,0.19-1.09,0.17l-5.27-0.33c-0.35-0.02-0.65,0.08-0.92,0.31c-2.16,1.86-4.6,1.16-6.99,2.14
	c-1.47,0.59-2.6,1.03-3.41,1.3c-1.33,0.45-2.49,1.2-3.49,2.24c-0.05,0.05-0.16,0.13-0.34,0.25c-0.17,0.12-0.27,0.29-0.28,0.5
	c-0.01,0.32-0.13,0.59-0.36,0.81c-1.95,1.93-4.25,3.27-6.9,4.01c-0.24,0.07-0.46,0.07-0.65,0.01c-0.22-0.06-0.43-0.13-0.63-0.2
	c-0.24-0.09-0.48-0.14-0.73-0.15c-0.69-0.04-1.26-0.28-1.72-0.73c-0.09-0.09-0.16-0.08-0.21,0.05c-0.04,0.11-0.09,0.22-0.14,0.31
	c-0.11,0.21-0.25,0.24-0.44,0.1c-0.9-0.69-1.63-0.97-2.18-0.84l-15.89-14.81c-0.35-0.33-0.71-0.33-1.07,0l-15.67,14.17l-0.5,0.09
	c-0.17,0.03-0.29,0.12-0.36,0.29c-0.09,0.2-0.21,0.36-0.36,0.48c-0.32,0.25-0.59,0.21-0.82-0.12c-0.21-0.3-0.49-0.35-0.85-0.14
	c-0.12,0.07-0.27-0.04-0.23-0.18c0.05-0.18,0.13-0.32,0.26-0.42c0.11-0.09,0.03-0.27-0.11-0.24c-0.69,0.13-1.22,0-1.6-0.4
	c-0.91-0.96-1.94-1.73-2.76-2.79c-0.18-0.23-0.41-0.37-0.7-0.4c-1.05-0.13-1.79-0.63-2.23-1.51c-0.14-0.29-0.36-0.48-0.67-0.57
	c-0.62-0.17-1.21-0.41-1.77-0.7c-0.93-0.49-1.65-0.82-2.16-0.97c-1.14-0.35-2.28-0.67-3.42-0.98c-2.78-0.75-6.06-0.19-8.9,0.03
	c-0.06,0.01-0.11,0-0.16-0.03l-0.37-0.19c-0.19-0.11-0.38-0.13-0.59-0.06c-0.65,0.19-1.19,0.12-1.6-0.22
	c-0.29-0.23-0.62-0.37-0.99-0.42c-1.41-0.19-2.78-0.1-4.11,0.27c-0.33,0.09-0.61,0.02-0.84-0.22c-0.38-0.39-0.84-0.67-1.39-0.84
	c-0.07-0.02-0.14,0.03-0.14,0.1c0,0.09,0,0.19,0,0.28c0,0.15-0.07,0.23-0.22,0.26c-0.52,0.07-0.98,0.28-1.38,0.63
	c-0.2,0.17-0.34,0.43-0.43,0.76c-0.07,0.27-0.12,0.56-0.15,0.89c-0.07,0.85-0.23,0.86-0.46,0.05l-0.83-2.81l-4.69-37.38
	c-0.06-0.52-0.69-0.74-1.06-0.38c-20.37,19.91-39.46,43.86-64.18,56.91c-11.45,6.05-23.41,10.39-35.87,13.02l-2.36-1.02
	c-0.33-0.14-0.33-0.3-0.02-0.47c0.71-0.38,1.49-0.52,2.36-0.43c0.33,0.03,0.55-0.11,0.65-0.42c0.41-1.27,0.16-2.16-0.76-2.67
	c-0.22-0.13-0.28-0.31-0.17-0.54c0.11-0.24,0.23-0.44,0.38-0.6c0.17-0.17,0.21-0.38,0.14-0.61l-0.13-0.37
	c-0.11-0.35-0.28-0.38-0.51-0.09c-0.18,0.23-0.4,0.38-0.66,0.45c-0.16,0.04-0.34,0.03-0.53-0.04c-1.38-0.51-2.05-1.43-2.02-2.78
	c0.01-0.32-0.07-0.62-0.25-0.89c-0.27-0.42-0.42-0.89-0.43-1.41c-0.01-0.29-0.08-0.57-0.23-0.83l-0.39-0.66
	c-0.08-0.14-0.27-0.16-0.38-0.04l-0.19,0.18c-0.15,0.15-0.3,0.15-0.45,0l-0.56-0.56c-0.27-0.26-0.54-0.27-0.82-0.03
	c-0.51,0.43-0.99,0.41-1.44-0.06c-0.13-0.13-0.21-0.3-0.22-0.49c-0.01-0.19-0.01-0.39-0.01-0.6c0-0.43,0.5-0.65,0.82-0.37
	c0.33,0.31,0.72,0.48,1.15,0.53c0.46,0.05,0.53-0.1,0.22-0.45c-0.63-0.7-1.4-1.13-2.3-1.3c-0.16-0.03-0.21-0.23-0.09-0.34
	c0.1-0.09,0.1-0.23,0-0.4c-0.07-0.13-0.2-0.2-0.34-0.18c-2.42,0.31-2.75-2.09-3.55-3.56c-0.13-0.24-0.17-0.5-0.13-0.77
	c0.08-0.57-0.23-0.98-0.94-1.24c-0.29-0.11-0.58-0.18-0.88-0.21c-0.34-0.04-0.6-0.17-0.78-0.39c-0.23-0.27-0.43-0.26-0.61,0.05
	c-0.13,0.23-0.33,0.34-0.62,0.33c-0.12-0.01-0.16-0.06-0.11-0.17c0.04-0.1,0.08-0.2,0.13-0.29c0.07-0.18,0.01-0.27-0.18-0.27h-1.69
	c-0.15,0-0.17-0.05-0.07-0.16l0.21-0.2c0.15-0.15,0.17-0.32,0.05-0.5c-0.37-0.57-0.64-1.2-0.79-1.9c-0.07-0.33-0.27-0.49-0.61-0.49
	h-1.74c-0.08,0-0.14-0.07-0.14-0.15l0.01-0.26c0.01-0.14,0.13-0.24,0.27-0.23c0.65,0.04,1.27-0.06,1.84-0.3
	c0.41-0.17,0.42-0.36,0.03-0.57l-0.27-0.15c-0.21-0.11-0.2-0.17,0.05-0.18c7.97-0.27,14.63-0.34,19.96-0.23
	c0.37,0.01,0.62-0.07,0.75-0.24c0.14-0.17,0.32-0.26,0.54-0.27l6.5-0.21c4.55-0.01,9.11,0.01,13.66,0.06
	c9.25,0.09,16.18-0.37,19.93-8.76c0.92-2.06,1.39-5.1,1.42-9.12c0.15-21.45,0.23-42.89,0.23-64.34c0-4.75-1.58-8.84-4.73-12.29
	c-2.63-2.87-5.23-4.34-7.8-4.41c-10.68-0.32-36.51-0.38-77.5-0.19l-5.06-0.09c-0.31-0.01-0.37-0.13-0.18-0.38
	c1.73-2.27,1.35-4.27-1.16-5.99c-0.28-0.19-0.47-0.45-0.56-0.78l-1.26-4.32c-0.31-10.65-0.36-21.01,4.76-29.74
	c7-11.94,19.8-18.34,33.65-15.94c15.06,2.61,26.4,15.93,26.89,31.13c0.19,5.74,0.34,11.47,0.45,17.19c0,0.29,0.14,0.43,0.43,0.43
	l18.79,0.05c0.25,0,0.38-0.13,0.39-0.38c0.41-11.27,0.43-18.87,0.08-22.8c-2.11-23.21-21.63-44.2-44.97-46.88
	c-13.67-1.57-26.09,1.44-37.27,9.05c-0.51-1.09-0.63-2.15-0.37-3.19c0.07-0.25,0.05-0.5-0.05-0.74l-0.62-1.57
	c-0.1-0.26-0.24-0.5-0.43-0.71c-0.19-0.23-0.31-0.47-0.36-0.74c-0.05-0.3-0.19-0.55-0.42-0.75c-0.37-0.34-0.75-0.55-1.15-0.63
	c-0.33-0.07-0.66-0.03-0.97,0.12c-0.75,0.35-1.43,0.28-2.03-0.21c-0.38-0.31-0.68-0.89-0.9-1.75c-0.41-1.61-0.97-3.19-1.66-4.73
	c-0.05-0.11-0.1-0.11-0.15,0c-0.04,0.08-0.08,0.16-0.12,0.23c-0.09,0.15-0.21,0.19-0.37,0.12c-1.13-0.51-1.73-1.41-1.79-2.68
	c-0.02-0.37-0.22-0.56-0.59-0.56h-1.01c-0.11,0-0.2-0.06-0.26-0.15c-0.05-0.09-0.09-0.2-0.11-0.31c-0.05-0.34-0.21-0.6-0.5-0.78
	l-2.37-1.53c-0.29-0.18-0.59-0.31-0.91-0.4c-0.72-0.21-1.24-0.69-1.56-1.44c-0.04-0.09-0.01-0.13,0.09-0.13c0.09,0,0.17,0,0.26,0
	c0.01,0,0-0.02-0.01-0.06c-0.01-0.01-0.02-0.03-0.04-0.05c-0.03-0.04-0.08-0.05-0.16-0.04c-0.63,0.07-1.03-0.22-1.18-0.86
	c-0.42-0.21-0.53-0.58-0.33-1.11c0.11-0.29,0.33-0.45,0.64-0.48c1.17-0.11,1.52-0.74,1.04-1.87c-0.1-0.25-0.27-0.44-0.5-0.57
	c-0.42-0.25-0.74-0.61-0.95-1.09c-0.07-0.16-0.04-0.35,0.09-0.48l0.27-0.27c0.27-0.26,0.22-0.38-0.13-0.37
	c-0.13,0.01-0.25-0.04-0.36-0.13c-0.02-0.02-0.08-0.28-0.14-0.62c-0.05-0.31,0.03-0.57,0.26-0.76c0.31-0.26,0.26-0.42-0.14-0.48
	l-1.71-0.24c-0.15-0.02-0.27-0.1-0.35-0.23c-0.28-0.46-0.68-0.6-1.21-0.42c0.01-0.15,0.05-0.29,0.14-0.4
	C189.88,28.98,371.23-2.6,501.82,88.64C531.34,109.27,556.83,133.56,577.95,162.76z"/>
<path class="st0" d="M294.42,146.82c-5.9-1.87-11.37-4.6-16.4-8.19c-0.28-0.2-0.68,0.03-0.63,0.38c0.06,0.45,0.04,0.88-0.05,1.31
	c-0.07,0.31-0.26,0.53-0.55,0.64c-1.89,0.69-3.49,0.67-4.82-0.06c-6.92-3.85-11.41-11.33-12.46-19.23
	c-3.91-29.3,37.53-40.43,58.49-42.56c7.5-0.75,16.66-0.44,24.97-0.49c7.09-0.05,18.29-1.86,17.51-11.68
	c-0.05-0.62,0.19-0.77,0.73-0.46c3.69,2.19,7.14,4.66,10.33,7.41c5.34,4.61,12.13,10.15,20.37,16.6
	c11.95,9.36,18.77,25.11,11.14,39.47c-5.15,9.68-14.21,13.34-24.07,16.5c-0.13,0.05-0.18,0.14-0.13,0.27v0.01
	c0.04,0.13,0.13,0.18,0.26,0.13c3.63-1.17,6.25-1.87,7.87-2.1c9.77-1.44,15.48,6.62,16.4,15.42c1.14,10.97-1.8,24.58-4.08,35.64
	c-0.07,0.35,0.07,0.51,0.42,0.5c9.75-0.27,12.51,9.84,10.68,17.6c-2.31,9.75-8.2,18.23-15.24,25.06c-0.25,0.24-0.39,0.53-0.42,0.86
	c-2.94,27.83-21.9,56.96-49.59,63.89c-0.11,0.03-0.15,0.09-0.13,0.2v0.01c0.02,0.11,0.09,0.16,0.2,0.15
	c12.31-1.32,23.85-5.03,34.61-11.13c1.25-0.71,2.28-1.48,3.1-2.31c0.59-0.6,0.86-0.48,0.83,0.36c-0.22,5.69-0.32,11.49-0.3,17.41
	c0.01,2.33-3.96,4.42-5.63,5.57c-14.36,9.85-28.74,19.51-43.13,28.96c-0.63,0.42-1.46,0.43-2.1,0.02
	c-14.43-9.09-28.59-18.49-42.5-28.19c-1.94-1.36-5.5-3.5-5.63-6.12c-0.32-6.03-0.61-11.92-0.87-17.67c-0.03-0.63,0.21-0.75,0.7-0.36
	c10.16,7.98,23.93,12.02,36.58,13.41c0.14,0.02,0.22-0.04,0.25-0.18l0.05-0.3c0-0.01-0.01-0.02-0.02-0.03
	c-5.49-1.2-10.56-3.4-15.21-6.59c-18.62-12.8-31.63-33.53-34.03-56.18c-0.03-0.32-0.18-0.59-0.43-0.8
	c-9.05-7.52-17.79-20-16.69-32.4c0.48-5.46,4.75-10.77,10.7-10.85c0.37,0,0.75-0.04,1.12-0.11c0.38-0.07,0.53-0.3,0.44-0.68
	c-2.29-9.8-3.71-19.71-4.26-29.73c-0.48-8.6,3.96-21.92,13.91-23.31c1.75-0.25,4.2,0.15,7.33,1.18c3.54,1.16,6.65,2.26,10.33,2.97
	c0.06,0.01,0.11-0.03,0.13-0.08C294.51,146.9,294.48,146.84,294.42,146.82z"/>
<path class="st0" d="M115.76,247.48l-0.09,2.51c-0.01,0.27-0.14,0.4-0.41,0.4l-18.55,0.14c-0.24,0.01-0.36-0.11-0.37-0.36
	c-0.23-7.87-0.27-14.37-0.12-19.49c0.49-16.48,9.63-31.34,22.74-41.09c11.18-7.61,23.6-10.62,37.27-9.05
	c23.34,2.68,42.86,23.67,44.97,46.88c0.35,3.93,0.33,11.53-0.08,22.8c-0.01,0.25-0.14,0.38-0.39,0.38l-18.79-0.05
	c-0.29,0-0.43-0.14-0.43-0.43c-0.11-5.72-0.26-11.45-0.45-17.19c-0.49-15.2-11.83-28.52-26.89-31.13c-13.85-2.4-26.65,4-33.65,15.94
	C115.4,226.47,115.45,236.83,115.76,247.48z"/>
<path class="st0" d="M553.59,207.23c8.83,1.76,17.23,1.69,26.19,1.88c0.46,0.01,0.8,0.41,0.75,0.86l-2.48,21.66
	c-0.07,0.56-0.46,1.02-0.99,1.17l-44.8,12.86c-4.47-7.93-10.87-12.28-19.2-13.07c-0.44-0.04-0.79-0.41-0.8-0.87l-0.9-33.52
	c-0.02-0.72-0.39-1.04-1.1-0.97l-2.5,0.26c-0.7,0.07-1.06,0.46-1.07,1.16l-0.61,33.06c-0.01,0.71-0.38,1.04-1.09,0.99
	c-0.59-0.04-1.34,0.07-2.24,0.32c-6.88,1.99-12.15,6.02-15.8,12.1c-0.17,0.28-0.42,0.38-0.73,0.3c-10.84-2.81-21.58-5.92-32.23-9.33
	c-4.25-1.36-8.55-2.47-12.92-3.32c-0.38-0.08-0.59-0.31-0.63-0.69l-2.31-22.57c-0.05-0.46,0.33-0.85,0.79-0.81
	c18.82,1.46,39.18-2.57,55.39-12.18c5.14-3.05,10.01-7.45,14.45-11.75c0.34-0.33,0.88-0.32,1.21,0.01
	C521.92,196.68,536.46,204.16,553.59,207.23z"/>
<path class="st0" d="M536.3,250.7l39.93-12.29c0.22-0.06,0.45,0.08,0.49,0.3c0.07,0.44,0.07,0.93,0.01,1.47
	c-1.68,14.42-4.84,28.5-9.47,42.25c-10.56,31.34-30.71,57.34-57.4,76.65c-0.3,0.22-0.63,0.27-0.98,0.15
	c-0.63-0.22-1.31-0.61-2.04-1.17c-11.13-8.54-20.35-18.06-29.23-28.39c-14.71-18.27-24.9-38.86-30.57-61.76
	c-2.28-9.22-5.12-19.73-5.53-29.21c-0.01-0.35,0.32-0.62,0.66-0.52l42.04,12.56c0.75,0.22,0.86,0.62,0.35,1.21
	c-0.37,0.43-0.52,0.88-0.55,1.47c-0.18,3.65-0.07,7.3,0.33,10.95c0.05,0.48-0.31,0.91-0.8,0.93l-25.75,1.13
	c-1.37,0.06-2.32,0.72-2.86,1.97l-0.17,0.4c-0.31,0.71,0.18,1.52,0.96,1.56c10.29,0.59,20.55,0.4,30.78-0.57
	c0.95-0.09,1.88,0.35,2.41,1.16c4.34,6.64,9.26,8.74,16.56,11.03c0.33,0.1,0.5,0.32,0.51,0.67l0.74,62.81
	c0.01,0.43,0.36,0.78,0.79,0.77l3.07-0.09c0.53-0.01,0.8-0.29,0.81-0.82l1.3-63.06c0-0.17,0.12-0.31,0.29-0.33
	c7.49-1.09,13.37-4.71,17.64-10.86c0.48-0.69,1.29-1.08,2.13-1.02c9.71,0.69,19.43,0.82,29.14,0.38c1.45-0.07,1.89-0.77,1.32-2.11
	l-0.22-0.52c-0.37-0.86-1.19-1.43-2.12-1.47l-25.29-1.19c-0.44-0.02-0.63-0.25-0.57-0.68c0.61-4.27,0.63-8.53,0.04-12.8
	c-0.05-0.34,0.09-0.56,0.41-0.67L536.3,250.7z"/>
<path class="st0" d="M521.13,254.93c1.04,6.13-3.17,11.95-9.39,13c-6.23,1.06-12.11-3.06-13.15-9.19c-1.04-6.13,3.17-11.95,9.39-13
	C514.21,244.69,520.09,248.81,521.13,254.93z"/>
<path class="st0" d="M178.77,358.09c-26.77-0.1-53.54-0.09-80.29,0.03c-6.58,0.03-12.67-4.21-14.48-10.62
	c-0.47-1.66-0.72-4.73-0.73-9.22c-0.06-20.61-0.03-41.23,0.08-61.85c0.06-9.57,6.3-17.24,16.12-17.2
	c8.17,0.03,16.34-0.04,24.51-0.19c40.99-0.19,66.82-0.13,77.5,0.19c2.57,0.07,5.17,1.54,7.8,4.41c3.15,3.45,4.73,7.54,4.73,12.29
	c0,21.45-0.08,42.89-0.23,64.34c-0.03,4.02-0.5,7.06-1.42,9.12c-3.75,8.39-10.68,8.85-19.93,8.76
	C187.88,358.1,183.32,358.08,178.77,358.09z"/>
<path class="st2" d="M141.41,284.57c8.03-4.68,18.65,0.45,20.97,9.14c1.99,7.46-1.68,11.74-6.73,16.4
	c-0.23,0.21-0.31,0.46-0.26,0.76l3.84,24.6c0.07,0.43-0.11,0.65-0.55,0.65l-19.77-0.17c-0.39-0.01-0.56-0.21-0.51-0.6l3.44-24.73
	c0.04-0.26-0.07-0.52-0.29-0.67C132.18,303.36,130.6,290.87,141.41,284.57z"/>
<path class="st0" d="M276.88,355.97c5.19,49.78,12.44,99.34,21.97,170.48c0.95,7.05,2.41,17.07,4.4,30.05
	c0.04,0.27,0.2,0.41,0.47,0.41l7.17,0.07c0.29,0,0.52-0.22,0.54-0.51c0.49-10.04,0.85-16.47,1.06-19.29
	c3.65-49.33,6.85-98.67,10.63-147.99c0.11-1.51-0.41-2.79-1.57-3.84c-1.62-1.47-5.35-5.23-11.2-11.27
	c-0.23-0.25-0.23-0.49,0.01-0.73l7.36-7.3l15.67-14.17c0.36-0.33,0.72-0.33,1.07,0l15.89,14.81l6.68,6.44
	c0.33,0.31,0.33,0.61,0,0.92l-13.35,12.41c-0.16,0.15-0.24,0.35-0.23,0.57l11.61,169.53c0.02,0.35,0.2,0.52,0.55,0.52l7.41,0.03
	c0.42,0,0.76-0.31,0.81-0.72c1.73-14.65,3.69-29.26,5.88-43.83c3.12-20.75,5.64-41.58,8.52-62.36c2.8-20.17,5.5-44.04,7.78-60.27
	c2.11-15.03,3.67-27.44,4.68-37.21l4.52-33.89c0.1-0.75,1.01-1.05,1.54-0.52c10.47,10.59,20.78,20.98,30.94,31.16
	c4.87,4.88,10.07,9.49,15.61,13.84c3.96,3.13,8.21,5.98,12.74,8.53c12.91,7.29,26.86,13.52,41.51,16.1
	c12.93,2.28,29.22,1.45,43.43,1.43c0.31,0,0.56,0.25,0.56,0.56l0.03,113.54l0.16,26.57c0,0.51-0.22,0.9-0.65,1.16
	c-29.57,17.94-59.41,35.6-89.51,52.98c-39.19,22.64-78.67,44.75-117.02,68.74c-0.3,0.19-0.68,0.19-0.98,0
	c-17.98-11.29-36.16-22.11-54.53-32.44c-47.35-26.63-94.23-54.06-140.66-82.27c-3.63-2.21-7.17-4.45-10.6-6.7
	c-0.42-0.28-0.67-0.75-0.67-1.26l-0.16-76.78l-0.05-63.34c0-0.36,0.3-0.66,0.66-0.66c14.25,0,29.31,0.53,43.52-1.33
	c12.46-2.63,24.42-6.97,35.87-13.02c24.72-13.05,43.81-37,64.18-56.91c0.37-0.36,1-0.14,1.06,0.38L276.88,355.97z"/>
</svg>
