<?xml version="1.0" encoding="utf-8"?>
<!-- Generator: Adobe Illustrator 28.0.0, SVG Export Plug-In . SVG Version: 6.00 Build 0)  -->
<svg version="1.0" id="katman_1" xmlns="http://www.w3.org/2000/svg" xmlns:xlink="http://www.w3.org/1999/xlink" x="0px" y="0px"
	 viewBox="0 0 712.52 722.16" style="enable-background:new 0 0 712.52 722.16;" xml:space="preserve">
<style type="text/css">
	.st0{fill:#042334;}
	.st1{fill:#FBFDFC;}
</style>
<path class="st0" d="M671.94,366.09L672.1,383c0.01,0.41-0.16,0.73-0.5,0.96c-5.12,3.6-7.35,10.61-4.99,16.18
	c4.67,11,19.31,12.39,25.44,1.76c2.85-4.94,2.38-10.08-1.4-15.43c-1.56-2.21-5.86-3.64-4.49-6.79c0.13-0.29,0.35-0.44,0.67-0.44
	l25.4-0.24c0.16-0.01,0.3,0.13,0.29,0.3c-1.04,21.59-3.58,43.46-8.25,64.59c-13.26,60.03-40.67,112.87-82.22,158.54
	c-0.36,0.4-0.73,0.4-1.1,0.01l-14.08-15.25c-0.37-0.4-0.37-1.01,0-1.41c10.83-11.93,21.52-23.85,32.07-35.78
	c2.03-2.29,4.13-4.32,6.28-6.07c0.5-0.41,0.82-1,0.9-1.64l1.11-8.81c0.1-0.83,0.42-1.62,0.92-2.29c1.87-2.5,3.63-5.23,5.29-8.18
	c7.25-12.89,13.13-26.38,17.63-40.48c3.36-10.56,7.16-21.57,9.18-32.46c0.07-0.38-0.03-0.71-0.31-0.98l-41.37-40.89
	c-0.32-0.32-0.5-0.75-0.5-1.2l-0.04-105.38c0-0.51-0.2-1-0.56-1.36l-13.01-12.98c-0.15-0.15-0.24-0.35-0.24-0.56
	c-0.07-9.74-0.11-19.45-0.11-29.12c0-1.53-0.29-2.6-0.88-3.21c-7.79-8.07-15.85-15.85-24.2-23.32c-0.25-0.23-0.34-0.5-0.28-0.83
	c2.19-11.22-7.87-19.92-18.6-15.28c-14.89,6.45-5.66,29.96,9.51,24.87c0.87-0.29,1.62-0.11,2.27,0.53l19.12,19.06
	c0.26,0.26,0.41,0.62,0.41,0.99c0.06,10.05-0.04,20.03-0.3,29.94c-0.03,1.07,0.83,2.5,2.56,4.3c3.97,4.13,7.89,8.25,11.78,12.37
	c0.22,0.23,0.34,0.54,0.34,0.86l-0.23,104.81c0,0.72,0.29,1.42,0.81,1.93l37.94,36.97c0.49,0.48,0.7,1.18,0.53,1.85
	c-4.5,17.76-8.97,34.72-16.19,51.45c-0.65,1.51-0.99,1.45-1-0.2c-0.06-5.85-0.25-12.05-0.58-18.6c-0.05-0.85,0.34-1.81,1.16-2.86
	c5.16-6.66,3.56-15.86-3.82-20.1c-7.28-4.19-16.71-0.3-19.07,7.66c-0.65,2.24-0.49,4.97-0.36,7.49c0.01,0.31-0.09,0.58-0.32,0.8
	l-16.56,16.23c-0.22,0.22-0.47,0.28-0.76,0.17c-0.87-0.31-1.93-0.76-3.16-1.33c-9.18-4.28-18.54,5.44-17.06,14.38
	c0.33,2.03,1.53,4.1,2.45,6.17c0.15,0.33,0.1,0.62-0.14,0.88c-9.27,9.99-20.53,20.45-28.78,28.84
	c-17.75,18.04-35.79,35.79-54.12,53.24c-0.65,0.61-1.54,1.2-2.69,1.76c-17.39,8.45-34.96,16.3-52.71,23.54
	c-0.73,0.29-1.55,0.27-2.26-0.07c-14.27-6.76-27.63,12.57-14.65,22.99c9.15,7.35,21.99,0.39,21.96-11.16c0-0.33,0.15-0.55,0.45-0.67
	c9.43-3.75,18.8-7.63,28.12-11.66c6.69-2.9,15.55-7.41,23.56-10.69c1.14-0.47,2.15-1.12,3.04-1.97
	c24.67-23.47,52.5-50.97,83.51-82.5c1.89-1.92,3.28-3.67,4.19-5.24c0.17-0.29,0.42-0.45,0.75-0.48c6.78-0.64,12.05-3.55,13.67-10.42
	c0.49-2.11-0.44-4.83,1.49-6.72c5.61-5.5,11.27-10.93,16.98-16.3c1.17-1.1,2.24-1.3,3.2-0.59c0.34,0.25,0.54,0.65,0.55,1.08
	c0.12,13.96,0.03,27.64-0.26,41.03c-0.04,1.86-0.03,3.13-1.41,4.55c-7.09,7.33-14,14.78-20.73,22.34c-0.37,0.42-0.77,0.46-1.21,0.11
	l-3.8-2.98c-0.43-0.33-0.82-0.3-1.17,0.11l-14.97,17.02c-0.29,0.33-0.78,0.39-1.14,0.14l-2.39-1.64c-0.76-0.53-1.79-0.43-2.44,0.23
	c-17.19,17.36-34.42,34.51-54.7,48.33c-38.26,26.09-82.33,42.54-127.95,49.82c-0.59,0.09-1.14,0.35-1.58,0.75l-25.06,22.6
	c-0.31,0.28-0.71,0.43-1.12,0.43l-66.49,0.05c-1.21,0.01-2.29-0.38-3.23-1.16c-2.09-1.72-4.31-3.67-6.66-5.86
	c-10.37-9.64-20.8-19.21-31.3-28.7c-1.66-1.5-3.37-2.51-5.67-3.11c-22.99-5.98-45.63-15.64-67.93-28.99
	c-38.05-22.76-73.44-53.72-99.73-90.66c-0.4-0.56-1.15-0.73-1.75-0.41l-7.26,3.83c-0.39,0.21-0.88,0.08-1.12-0.3
	c-19.44-31.24-32.09-64.98-40.66-100.65c-0.51-2.09-0.93-4.19-1.27-6.29c-0.03-0.19,0.12-0.37,0.32-0.37l38.27-0.13
	c0.23,0,0.42,0.19,0.42,0.42c0.13,20.78,0,41.53-0.38,62.24c-0.05,2.97,5.7,8.08,7.75,10.18c14.69,15.06,29.42,30.09,44.17,45.09
	c5.11,5.19,11.86,11.51,17.56,17.45c0.38,0.4,0.91,0.62,1.46,0.62l39.31-0.07c0.71,0,1.38,0.27,1.88,0.75
	c2.29,2.2,4.6,4.39,6.91,6.58c4.64,4.38,10.13,8.24,15.18,12.45c0.23,0.19,0.22,0.54-0.01,0.72c-2.88,2.22-0.1,4.02,1.56,5.34
	c0.25,0.19,0.37,0.45,0.38,0.76c0.02,0.79-0.36,1.23-1.14,1.34c-10.73,1.47-16.38,12.04-9.68,21.18
	c11.24,15.29,32.54-0.35,21.42-15.7c-0.18-0.24-0.12-0.57,0.12-0.75c1-0.73,1.83-1.61,2.49-2.66c0.24-0.37,0.73-0.48,1.1-0.24
	c15.67,10.01,32.41,17.6,50.2,22.75c43.19,12.51,89.96,15.36,133.75,4.52c30.33-7.51,57.89-19.8,82.66-36.85
	c23.98-16.51,43.32-42.51,51.82-71.05c3.39-11.36,5.83-22.56,6.2-34.18c0.01-0.43,0.36-0.78,0.79-0.8l12.23-0.57
	c0.35-0.01,0.64-0.14,0.89-0.39l27.31-27.72c0.58-0.58,0.9-1.37,0.9-2.18l0.03-146.75c0-1.09-0.41-2.15-1.15-2.96
	c-3.18-3.49-6.59-7.01-10.23-10.55c-15.05-14.65-30.35-29.51-45.89-44.59c-0.4-0.38-0.62-0.9-0.62-1.45l-0.1-29.27
	c0-0.92,0.32-1.81,0.9-2.51l12.78-15.46c0.28-0.33,0.73-0.47,1.15-0.34c10.75,3.31,20.41-5.85,16.93-16.93
	c-2.56-8.14-12.87-12-19.98-6.69c-0.49,0.36-1.17,0.32-1.61-0.1l-26.15-24.84c-0.27-0.25-0.35-0.56-0.26-0.91
	c2.26-8.6-3.63-17.02-12.57-16.99c-11.11,0.04-17.06,12.93-10.57,21.57c4.01,5.35,8.5,5.76,14.87,5.22
	c0.43-0.04,0.85,0.11,1.17,0.41c8.1,7.8,15.92,15.99,24.29,23.31c1.93,1.69,3.46,3.69,4.58,6.02c0.3,0.63,0.2,1.38-0.27,1.9
	c-5.22,5.77-10.47,11.51-15.76,17.22c-2.52,2.73-2.29,4.81-2.31,8.98c-0.05,11.48-0.05,22.95-0.02,34.42c0,1.13,0.66,2.29,1.99,3.5
	c3.06,2.77,6.09,5.57,9.08,8.41c15.79,14.97,31.4,30.26,46.81,45.89c0.25,0.26,0.39,0.6,0.39,0.96l-0.04,135.9
	c0,1.23-0.48,2.42-1.34,3.3l-17.59,18.33c-0.25,0.25-0.55,0.39-0.9,0.4l-9.25,0.32c-0.26,0.01-0.39-0.11-0.39-0.38
	c0.05-46.55,0.06-93.09,0.02-139.63c-0.02-18.3-5.62-34.54-22.08-44.02c-8.15-4.68-15.83-4.29-24.87-4.3
	c-0.35,0-0.52-0.17-0.52-0.51c-0.07-14.9-0.1-29.79-0.1-44.67c0.01-9.21-0.17-15.88-0.52-19.99c-2.58-30.06-13.56-55.3-32.07-79.14
	c-0.16-0.22-0.14-0.52,0.06-0.71c1.35-1.26,2.16-2.82,2.42-4.67c0.05-0.33,0.25-0.49,0.58-0.48c7.08,0.22,11.76-2.78,14.04-8.99
	c1.41-3.85,0.93-7.68-1.44-11.49c-9.86-15.9-32.48-2.18-23.36,13.29c0.35,0.58,0.52,1.09,0.51,1.52c-0.01,1.87-0.65,2.12-1.92,0.76
	c-6.66-7.07-14.09-13.77-22.3-20.08c-2.71-2.08-8.66-5.69-17.85-10.84c-0.31-0.17-0.49-0.43-0.56-0.78
	c-0.29-1.48,0.68-2.34,2.15-2.36c2.04-0.03,4.07,0.2,5.95-0.6c6.84-2.89,9.52-11.19,6.73-17.61c-7.35-16.93-35.02-6.04-23.55,13.22
	c0.18,0.3,0.21,0.61,0.08,0.93c-0.56,1.42-1.62,1.85-3.19,1.29c-8.62-3.09-15.6-5.96-25.77-8.1c-32.08-6.77-63.07-3.65-92.97,9.38
	c-5.3,2.31-10.35,5.09-15.14,8.34c-0.84,0.57-1.44,0.59-1.8,0.06c-0.15-0.21-0.13-0.49,0.04-0.67c4.91-5.48,1.85-14.11-3.72-17.66
	c-7.64-4.87-17.62-0.55-20.42,7.63c-2.97,8.66,4.18,16.98,12.73,18.07c0.48,0.06,0.63,0.69,0.23,0.96c-1.04,0.71-2.14,1.05-3.14,1.8
	c-24.58,18.73-44.05,45.22-53.54,75.18c-4.71,14.87-7.1,31.12-7.17,48.74c-0.07,15.91-0.1,31.66-0.09,47.27
	c0,0.67-0.33,0.97-0.99,0.92c-17.67-1.53-31.79,6.05-39.46,21.5c-4.04,8.14-5,16.27-5,25.81c0.02,46.45,0.01,92.91-0.02,139.36
	c0,0.31-0.16,0.46-0.47,0.47l-12.33,0.21c-0.68,0.01-1.33-0.26-1.8-0.75l-14.33-14.94c-0.5-0.52-0.78-1.22-0.78-1.94l-0.06-89.96
	c0-1.2-0.47-2.36-1.32-3.22c-12.3-12.51-24.95-24.5-36.62-37.44c-0.17-0.19-0.27-0.43-0.27-0.69l-0.04-19.71
	c0-0.5,0.18-0.99,0.51-1.36c2.81-3.24,5.32-6.75,7.55-10.53c8.29-14.11,16.36-28.32,24.22-42.65c0.1-0.17,0.29-0.27,0.49-0.23
	c11.39,2.02,19.79-9.06,14.11-19.26c-8.22-14.75-30.53-5.01-24.42,10.65c0.25,0.63,0.45,1.2,0.59,1.69
	c0.09,0.32,0.04,0.66-0.13,0.94c-9.36,14.95-18.34,31.62-26.21,43.55c-1.08,1.63-3.97,5.4-8.67,11.29
	c-0.49,0.62-0.74,1.79-0.74,3.52c0.02,8.41,0.02,16.83-0.01,25.25c-0.01,1.62,0.19,2.9,1.34,4.18
	c11.51,12.78,24.25,24.5,36.22,36.83c0.42,0.43,0.63,0.95,0.63,1.56c0.08,29.23,0.03,58.57-0.14,88c-0.02,3.9,1.29,4.97,3.77,7.58
	c7.28,7.63,14.62,14.94,22.02,21.93c0.61,0.58,1.33,0.87,2.18,0.88l14.2,0.05c0.38,0,0.58,0.19,0.59,0.56
	c0.61,26.33,8.17,52.19,24.26,73.2c0.51,0.67,0.35,1-0.5,0.97c-7.07-0.2-14.36-0.26-21.85-0.18c-3.62,0.04-6.81-3.13-9.92-6.64
	c-2.29-2.58-4.22-4.64-5.79-6.19C130.5,525.54,114.56,509.38,97,491.1c-1.37-1.42-2.15-2.1-2.16-4.24
	c-0.08-27.71-0.02-55.36,0.17-82.97c0.01-0.65-0.24-1.27-0.69-1.73l-20.48-21.27c-0.1-0.11-0.25-0.17-0.41-0.17L1.35,380.9
	c-0.3,0-0.46-0.15-0.48-0.45c-1.78-23.39-0.83-46.67,2.86-69.83c1.71-10.74,3.78-21.37,6.21-31.9c0.09-0.38,0.47-0.62,0.85-0.53
	l21.71,5.18c0.25,0.06,0.42,0.31,0.37,0.57c-3.43,19.44-4.98,38.63-4.44,58.62c0.02,0.65,0.36,0.99,1.02,1.02l9.52,0.36
	c0.67,0.02,1.12,0.72,0.85,1.34c-7.15,16.97,17.69,28.52,25.2,12.36c4.78-10.28-3.25-21.3-14.41-19.64
	c-0.25,0.04-0.47-0.15-0.48-0.4c-0.66-21.16,0.87-42.16,4.58-63c0.05-0.32,0.24-0.45,0.56-0.39l9.56,1.85
	c0.41,0.08,0.68-0.08,0.79-0.48c1.11-4.03,2.2-8.03,3.27-12.02c12.29-46.05,40.63-85.46,74.61-118.85
	c10.9-10.71,23.07-20.48,35.31-29.85c1.2-0.91,2.33-1.64,3.38-2.19c0.57-0.29,1.03-0.78,1.28-1.37l8.59-20.26
	c0.22-0.52,0.61-0.93,1.11-1.18c34.3-16.92,69.3-32.79,107.59-41.33c24.43-5.46,48.41-8.22,72.75-6.7
	c30.19,1.89,59.56,8.26,88.09,19.12c0.24,0.09,0.41,0.32,0.42,0.57c0.65,10.23,10.58,15.96,19.99,11.75
	c14.95-6.71,8.17-29.64-8.07-28.02c-1.27,0.13-2.16,0.06-2.67-0.21c-3.88-2.01-7.87-3.76-11.96-5.26
	c-18.27-6.69-36.99-11.6-56.14-14.75c-13.09-2.15-26.84-2.82-40.38-3.19c-0.25-0.01-0.45-0.21-0.45-0.46L362.3,0.54
	c0-0.3,0.25-0.54,0.55-0.54c63.12,0.84,127.17,20.19,180.27,54.24c3.19,2.05,6.47,4.32,9.85,6.83c0.25,0.19,0.29,0.55,0.09,0.78
	c-0.4,0.46-1.06,0.76-1.45,1.27c-3.69,4.71-7.39,9.31-11.08,13.8c-0.4,0.49-0.86,0.55-1.39,0.2c-5.67-3.88-11.04-4.31-16.13-1.28
	c-5.31,3.16-8.32,8.55-7.45,14.77c0.85,6.05,4.22,8.98,9.55,12.81c43.01,30.95,81.38,72.5,104.5,120.31
	c8.99,18.6,15.4,36.52,19.23,53.76c0.05,0.26,0.21,0.36,0.47,0.31l13.7-3.04c0.45-0.1,0.72,0.07,0.81,0.52
	c1.13,5.12,2.17,10.39,3.13,15.81c0.19,1.04-0.03,1.8-0.64,2.28c-4.87,3.8-6.78,8.41-5.75,13.84c3.09,16.18,26.38,15.86,27.87-0.87
	c0.55-6.18-2.66-10.45-7.42-13.92c-0.23-0.17-0.37-0.44-0.38-0.72l-0.24-5.07c-0.01-0.26,0.11-0.42,0.36-0.48l21.88-5.45
	c0.4-0.09,0.79,0.15,0.88,0.54c6.47,27.57,9.39,55.51,8.77,83.84c-0.01,0.32-0.17,0.48-0.5,0.48l-39.26-0.05
	C672.13,365.5,671.93,365.7,671.94,366.09z"/>
<path class="st0" d="M197.44,40.35c47.07-23.57,99.32-38.6,152.28-40.05c0.19-0.01,0.35,0.15,0.35,0.35l-0.12,21.1
	c0,0.17-0.14,0.3-0.31,0.31c-18.58,0.51-36.4,3.31-54.65,7.33C262.66,36.5,232.12,48.37,203.36,65
	c-6.69,3.87-13.18,7.76-19.47,11.67c-0.92,0.58-1.65,1.43-2.07,2.43l-9.63,23.03c-0.19,0.45-0.47,0.81-0.86,1.1l-12.67,9.5
	c-0.26,0.19-0.48,0.16-0.67-0.09l-22.52-30.27c-0.44-0.6-0.34-1.44,0.23-1.91C154.85,64.75,175.43,51.38,197.44,40.35z"/>
<path class="st1" d="M510.86,60.58c-2.17,0.47-4.33-1.03-4.83-3.35c-0.5-2.32,0.84-4.58,3-5.06c2.17-0.47,4.33,1.03,4.83,3.35
	C514.36,57.85,513.02,60.11,510.86,60.58z"/>
<path class="st0" d="M565.36,68.74c66.08,49.14,114.15,118.17,135.32,197.95c0.11,0.39-0.04,0.63-0.43,0.73l-24.71,6.33
	c-0.31,0.08-0.5-0.03-0.57-0.34c-3.47-15.05-8.56-30.14-15.28-45.27c-16.17-36.38-38.14-68.82-65.91-97.31
	c-14.17-14.53-29.11-28.06-44.84-40.57c-0.46-0.37-0.54-1.05-0.18-1.52l15.31-19.83C564.38,68.51,564.96,68.43,565.36,68.74z"/>
<path class="st0" d="M499.46,286.34c5.91,0.07,12.02,0.06,18.32-0.03c14.49-0.22,25,11.14,27.54,24.69
	c0.44,2.36,0.67,8.27,0.68,17.73c0.07,70.97,0.06,120.68-0.03,149.11c-0.05,17-5.08,35.56-12.72,50.93
	c-10.79,21.72-28.21,39.04-49.07,51.96c-31,19.21-64.47,30.86-99.18,34.73c-59.32,6.61-119.99-7.75-167.89-43.94
	c-25.69-19.41-43.02-48.34-47.14-80.47c-0.61-4.78-0.91-11.43-0.9-19.95c0.09-61.54,0.08-109.88-0.02-145.01
	c-0.03-11.31,0.04-20.76,7.14-29.81c9.68-12.34,24.05-10.07,37.72-9.9c0.56,0.01,0.84-0.27,0.84-0.83
	c0.01-18.63-0.04-36.45-0.15-53.46c-0.09-12.52,0.07-25.49,2.84-37.76c14.75-65.43,74.74-112.3,141.34-111.72
	c49.91,0.43,94.23,27.53,119.94,69.75c13.21,21.68,19.78,44.59,19.73,68.73c-0.04,21.27-0.01,42.71,0.09,64.32
	C498.54,285.92,498.95,286.33,499.46,286.34z"/>
<path class="st0" d="M139.32,109.01C93.97,152.89,55.08,209.42,40,271.46c-0.07,0.29-0.25,0.41-0.55,0.34l-25.64-6.13
	c-0.19-0.05-0.27-0.17-0.22-0.36c0.71-2.71,1.24-5.66,2.04-8.26C35.36,192.76,73.57,134.6,123.89,90.23c0.54-0.48,1.36-0.4,1.8,0.17
	l13.69,17.9C139.57,108.55,139.55,108.79,139.32,109.01z"/>
<path class="st1" d="M207.72,121.7c-0.67-1.57-1.46-3.04-1.81-4.58c-3.27-14.52,14.63-22.83,23.93-11.58
	c5.9,7.13,3.56,19.63-5.52,23c-2.49,0.93-4.7,0.62-7.06,0.4c-0.35-0.03-0.68,0.12-0.88,0.4c-1.67,2.33-2.93,3.93-3.8,4.8
	c-19.23,19.41-38.54,38.75-58.34,57.57c-6.15,5.84-11.97,11.99-18.22,17.73c-0.23,0.21-0.49,0.28-0.79,0.23l-11.54-2.04
	c-0.93-0.16-1.09-0.6-0.47-1.32c5.23-6.12,10.22-10.79,15.56-16.06c22.89-22.59,45.81-45.14,68.76-67.65
	C207.8,122.34,207.86,122.04,207.72,121.7z"/>
<path class="st1" d="M231.46,224.6c-0.19-46.38,27.71-88.71,68.41-109.64c30.76-15.83,66.92-19.17,99.33-6.57
	c42.19,16.4,74.93,53.49,81.27,99.01c0.66,4.73,1.01,11.37,1.04,19.94c0.07,19.1,0.13,38.63,0.18,58.58c0,0.46-0.23,0.69-0.69,0.69
	l-29.72-0.07c-0.29,0-0.52-0.23-0.52-0.52c0.03-17.37,0.04-34.76,0.04-52.19c0-8.83-0.35-15.48-1.06-19.94
	c-7.41-46.64-48.92-79.12-95.71-77.52c-50.27,1.73-91.36,40.36-91.39,91.72c-0.01,19.31,0.03,38.58,0.13,57.79
	c0,0.49-0.24,0.73-0.73,0.73l-29.76-0.02c-0.35,0-0.53-0.18-0.53-0.53C231.64,265.55,231.54,245.07,231.46,224.6z"/>
<path class="st1" d="M280.18,286.49c-0.43,0-0.77-0.34-0.77-0.77v-55.11c0-42.71,34.19-77.34,76.37-77.34h1.96
	c42.18,0,76.37,34.63,76.37,77.34v55.11c0,0.43-0.34,0.77-0.77,0.77H280.18z"/>
<path class="st0" d="M290.66,275.25c-0.48,0-0.87-0.39-0.87-0.87V230.8c0-37.03,29.68-67.05,66.3-67.05h1.5
	c36.62,0,66.3,30.02,66.3,67.05v43.58c0,0.48-0.39,0.87-0.87,0.87H290.66z"/>
<path class="st1" d="M514.96,183.85c-1.57-0.23-2.63-1.81-2.38-3.53c0.25-1.72,1.72-2.94,3.28-2.7c1.57,0.23,2.63,1.81,2.38,3.53
	C517.99,182.86,516.52,184.08,514.96,183.85z"/>
<path class="st1" d="M199.77,183.66c-1.44,0.73-3.25,0.08-4.04-1.46c-0.79-1.54-0.26-3.39,1.18-4.13c1.44-0.73,3.25-0.08,4.04,1.46
	C201.74,181.07,201.21,182.92,199.77,183.66z"/>
<path class="st1" d="M172.62,212.98c1.43,7.06,2.3,13.41-3.29,19.32c-0.27,0.29-0.7,0.38-1.07,0.23l-9.94-4.06
	c-1.23-0.51-2.09-1.63-2.26-2.95c-0.88-6.99-1.31-13.33,1.98-19.41c1.2-2.2,9.42-1.48,11.46-1.09c0.57,0.12,1.16,0,1.64-0.33
	c1.4-0.93,2.83-1.9,4.28-2.9c3.86-2.66,1.49-8.35,6.58-8.78c4.07-0.35,6.39,1.51,6.95,5.57c0.57,4.2-0.96,5.54-4.65,7.36
	c-3.29,1.61-6.39,3.53-9.32,5.74c-0.6,0.45-1.23,0.59-1.95,0.7C172.68,212.43,172.55,212.63,172.62,212.98z"/>
<path class="st1" d="M663.5,216.76c-1.81-0.26-3.05-2.08-2.77-4.08c0.29-1.99,1.99-3.39,3.81-3.13c1.81,0.26,3.05,2.08,2.77,4.08
	C667.02,215.62,665.32,217.02,663.5,216.76z"/>
<path class="st1" d="M148.86,265.62c-0.5-1.92-1.17-3.91-1.16-5.79c0.1-14.99,19.92-17.53,25.64-4.47
	c4.41,10.08-4.05,20.16-14.68,18.46c-0.55-0.09-1.01,0.08-1.38,0.49l-44.21,49.73c-0.21,0.23-0.42,0.23-0.64,0.02l-7.39-7.17
	c-0.43-0.42-0.46-1.1-0.08-1.56c13.94-16.8,29.26-32.37,43.68-48.8C148.87,266.26,148.95,265.96,148.86,265.62z"/>
<path class="st1" d="M128.77,271.49c-2.01,0.48-4.06-0.87-4.59-3.02c-0.53-2.15,0.68-4.29,2.7-4.78c2.01-0.48,4.06,0.87,4.59,3.02
	C132,268.86,130.79,271,128.77,271.49z"/>
<path class="st1" d="M379.49,531.38l-13.28,0.07c-0.3,0-0.45,0.15-0.45,0.45l0.04,67.19c0,0.35-0.17,0.53-0.52,0.54
	c-16.49,0.61-32.84-0.64-49.03-3.75c-0.43-0.08-0.74-0.46-0.74-0.9c0-9.94,0.01-19.99,0.04-30.15c0-1.19,0.76-2.51,2.27-3.98
	c3.33-3.23,2.58-9.78,0.22-13.29c-5.25-7.8-17.88-6.98-21.35,2.14c-2.3,6.04,0.66,11.3,5.31,15.16c0.22,0.18,0.35,0.45,0.35,0.74
	l-0.12,27.26c0,0.36-0.17,0.49-0.52,0.38l-19.3-6.03c-0.54-0.17-0.9-0.67-0.9-1.24l-0.02-281.78c0-0.37,0.31-0.68,0.68-0.67
	l18.47,0.1c0.55,0.01,0.83,0.29,0.83,0.84l0.23,47.92c0,0.34,0.27,0.62,0.61,0.61l12.01-0.17c0.29-0.01,0.53-0.24,0.53-0.53
	l-0.07-48.22c0-0.28,0.23-0.51,0.51-0.51l16.94-0.04c0.15,0,0.28,0.13,0.28,0.28l0.04,53.06c0,0.17,0.08,0.25,0.24,0.25h12
	c0.53,0,0.96-0.43,0.96-0.96v-52.1c0-0.37,0.19-0.56,0.56-0.56l52.72,0.07c0.36,0,0.54,0.18,0.54,0.54l-0.04,40.84
	c0,0.55-0.24,1.07-0.65,1.43c-14.21,12.47,6.99,30.82,17.25,16.12c3.96-5.68,2.03-12.42-3.06-16.48c-0.26-0.2-0.41-0.51-0.41-0.84
	l0.17-41.33c0.01-0.24,0.2-0.43,0.44-0.42l19.26,0.24c0.45,0,0.68,0.23,0.68,0.69l0.05,281.61c0,0.81-0.54,1.52-1.32,1.73
	l-18.84,5.2c-0.21,0.06-0.31-0.02-0.31-0.24l-0.13-27.69c0-0.41,0.16-0.74,0.47-1.01c5.06-4.2,7.59-9.91,4.1-15.92
	c-5.13-8.85-18.76-7.23-21.89,2.06c-2.1,6.2,0.3,9.55,3.9,14.17c0.21,0.26,0.32,0.56,0.31,0.9l-0.07,29.95
	c0,0.64-0.32,1.01-0.96,1.11l-17.69,2.74c-0.44,0.07-0.83-0.27-0.83-0.71l-0.07-66.44C379.92,531.52,379.78,531.37,379.49,531.38z"
	/>
<path class="st1" d="M446.75,581.04l0.04-277.27c0-0.23,0.18-0.41,0.41-0.4l17.86,0.36c0.22,0.01,0.39,0.18,0.39,0.4l0.03,268.18
	c0,0.15-0.09,0.29-0.22,0.36l-17.93,8.73C447.06,581.53,446.75,581.34,446.75,581.04z"/>
<path class="st1" d="M185.84,319.59c-0.02-8.76,4.24-16.1,13.93-16.09c12.25,0.01,24.25,0.06,36,0.15c0.64,0.01,0.96,0.33,0.96,0.97
	l0.01,258.72c0,0.35-0.39,0.56-0.69,0.37c-15.71-10.41-29.8-24.69-38.35-41.08c-5.95-11.4-11.79-27.81-11.78-42.04
	C185.97,413,185.95,359.34,185.84,319.59z"/>
<path class="st1" d="M249.77,572.38V304.02c0-0.21,0.17-0.38,0.38-0.38l17.52-0.15c0.21,0,0.38,0.17,0.38,0.38v277.34
	c0,0.29-0.3,0.47-0.55,0.34l-17.52-8.83C249.85,572.65,249.77,572.52,249.77,572.38z"/>
<path class="st1" d="M527.85,492.57c-6.32,31.75-23.61,52.72-48.59,71.21c-0.15,0.11-0.36,0-0.36-0.18l-0.09-259.52
	c0-0.29,0.23-0.52,0.52-0.52c12.3,0.04,24.61,0.05,36.94,0.04c7.29,0,11.59,6.05,12.67,12.55c0.11,0.73,0.18,4.19,0.21,10.38
	c0.17,49.83,0.18,99.65,0.01,149.48C529.14,482.76,528.7,488.28,527.85,492.57z"/>
<path class="st0" d="M205.71,332.82c-3.92-2.97-4.63-8.63-1.59-12.63c3.04-4,8.68-4.84,12.59-1.87c3.92,2.97,4.63,8.63,1.59,12.63
	C215.26,334.95,209.62,335.79,205.71,332.82z"/>
<path class="st0" d="M506.68,321.5c0,2.32-1.88,4.2-4.2,4.2s-4.2-1.88-4.2-4.2s1.88-4.2,4.2-4.2S506.68,319.18,506.68,321.5z"/>
<path class="st1" d="M618.02,329.25c0,2.49-2.01,4.5-4.5,4.5s-4.5-2.01-4.5-4.5s2.01-4.5,4.5-4.5S618.02,326.76,618.02,329.25z"/>
<path class="st1" d="M662.59,342.43c-2.17,0.21-4.11-1.51-4.35-3.84c-0.23-2.34,1.34-4.41,3.52-4.62c2.17-0.21,4.11,1.51,4.35,3.84
	C666.34,340.15,664.77,342.22,662.59,342.43z"/>
<path class="st1" d="M14.56,345.07c-2.17,0.26-4.16-1.51-4.46-3.96c-0.3-2.45,1.22-4.65,3.38-4.91c2.17-0.26,4.16,1.51,4.46,3.96
	C18.24,342.61,16.72,344.81,14.56,345.07z"/>
<path class="st0" d="M507.54,362.78c0,2.39-1.93,4.32-4.32,4.32s-4.32-1.93-4.32-4.32s1.93-4.32,4.32-4.32
	S507.54,360.39,507.54,362.78z"/>
<path class="st0" d="M379.16,450.88c-0.63,0.25-0.98,0.92-0.83,1.58l12.63,55.26c0.06,0.25-0.13,0.49-0.39,0.49l-66.59,0.16
	c-0.32,0-0.56-0.29-0.5-0.6c3.29-18.51,7.62-36.31,11.72-54.83c0.17-0.77-0.09-1.34-0.77-1.73c-7.17-4.06-15.12-13.4-17.86-21.2
	c-4.29-12.18-3.67-23.56,1.86-34.14c15.49-29.61,57.62-31.33,75.49-3.15c12.35,19.46,6.26,44.01-12.44,56.83
	C380.54,450.19,379.77,450.63,379.16,450.88z"/>
<path class="st0" d="M203.7,393.02c6.5-6.38,18.09-3.17,19.83,5.93c1,5.28-0.88,7.96-4.37,11.65c-0.23,0.23-0.36,0.51-0.4,0.84
	c-0.19,1.73-0.29,3.45-0.3,5.15c-0.02,11.31,0.01,22.55,0.08,33.72c0,0.41-0.34,0.75-0.75,0.75l-12.08-0.01
	c-0.34-0.01-0.51-0.18-0.51-0.52l0.26-38.32c0.01-0.35-0.12-0.64-0.37-0.88C199.84,406.22,197.95,398.66,203.7,393.02z"/>
<path class="st0" d="M497.78,411.4c-0.81-0.78-1.89-1.21-2.68-2.12c-2.99-3.47-3.85-7.19-2.58-11.18
	c4.7-14.71,26.56-8.18,22.53,6.81c-0.51,1.91-2.98,4.44-2.97,6.18c0.32,36.86,0.3,73.75-0.05,110.67c-0.01,0.29-0.24,0.52-0.53,0.52
	l-12.27,0.03c-0.35,0-0.52-0.17-0.52-0.51l-0.15-108.56C498.56,412.51,498.3,411.9,497.78,411.4z"/>
<path class="st0" d="M81.58,415.57c-0.02,0.23-0.24,0.4-0.47,0.35c-0.95-0.21-1.98-0.32-3.09-0.32
	c-24.23-0.01-48.32,0.02-72.27,0.11c-0.5,0-0.79-0.25-0.86-0.74l-2.88-20.18c-0.07-0.47,0.14-0.71,0.62-0.71l64.72-0.02
	c0.81,0,1.58,0.32,2.14,0.89l12.31,12.34c0.27,0.27,0.38,0.59,0.35,0.96L81.58,415.57z"/>
<path class="st1" d="M613.66,415.56c-2.23,0.22-4.24-1.54-4.49-3.95c-0.24-2.41,1.37-4.54,3.61-4.77c2.23-0.22,4.24,1.54,4.49,3.95
	C617.51,413.2,615.9,415.33,613.66,415.56z"/>
<path class="st0" d="M30.54,458.28l8.22-1.28c0.39-0.07,0.63,0.09,0.72,0.48c4.6,18.37,11.46,36.07,19.08,53.36
	c8.5,19.27,16.83,35.01,24.99,47.21c5.27,7.88,13.14,16.85,23.61,26.9c16.28,15.64,34.15,30.57,53.2,42.71
	c23.27,14.83,47.91,27.02,73.91,36.55c8.11,2.97,16.28,5.66,24.51,8.07c0.7,0.2,1.34,0.56,1.89,1.05l35.16,31.85
	c0.25,0.23,0.54,0.34,0.88,0.34l52.67,0.45c0.32,0.01,0.48,0.17,0.47,0.48l-0.14,15.17c0,0.24-0.19,0.43-0.43,0.42
	c-21.54-0.83-43.26-3.17-64.32-7.74c-82.63-17.91-159.5-66.27-211-133.64c-31.37-41.04-52.65-86.82-63.85-137.33
	c-1.07-4.8-1.94-9.61-2.61-14.42c-0.02-0.15,0.09-0.28,0.24-0.28l22.81,0.12c0.3,0.01,0.54,0.27,0.51,0.57
	c-0.94,9.47-2.41,18.79-1.11,28.52C30,458.19,30.19,458.33,30.54,458.28z"/>
<path class="st1" d="M695.29,436.16c-1.87-0.09-3.31-1.78-3.23-3.78c0.09-2.01,1.68-3.57,3.55-3.49c1.87,0.09,3.31,1.78,3.23,3.78
	C698.75,434.68,697.16,436.24,695.29,436.16z"/>
<path class="st1" d="M64.26,464.19c-1.67-0.62-2.46-2.62-1.78-4.47c0.68-1.85,2.59-2.85,4.26-2.23c1.67,0.62,2.46,2.62,1.78,4.47
	C67.84,463.81,65.93,464.81,64.26,464.19z"/>
<path class="st1" d="M141.49,508.13c-5.93,3.67-13.79,1.73-17.57-4.35c-3.77-6.08-2.02-13.99,3.92-17.67
	c5.93-3.67,13.79-1.73,17.57,4.35C149.18,496.54,147.43,504.45,141.49,508.13z"/>
<path class="st0" d="M209.91,505.33c-2.24-0.64-3.51-3.05-2.83-5.39c0.67-2.34,3.03-3.71,5.26-3.07c2.24,0.64,3.51,3.05,2.83,5.39
	C214.5,504.6,212.14,505.97,209.91,505.33z"/>
<path class="st1" d="M45.33,505.6c-0.17,1.09-1.2,1.84-2.3,1.67l-1.13-0.18c-1.09-0.17-1.84-1.2-1.67-2.3l0.27-1.68
	c0.17-1.09,1.2-1.84,2.3-1.67l1.13,0.18c1.09,0.17,1.84,1.2,1.67,2.3L45.33,505.6z"/>
<path class="st1" d="M571.96,515.02c-2.34-0.08-4.17-2.13-4.09-4.59c0.08-2.46,2.04-4.4,4.37-4.32c2.34,0.08,4.17,2.13,4.09,4.59
	C576.25,513.15,574.29,515.09,571.96,515.02z"/>
<path class="st1" d="M180.16,586.5c0.93,3.75-1.44,7.57-5.3,8.54c-3.86,0.97-7.75-1.29-8.69-5.05c-0.93-3.75,1.44-7.57,5.3-8.54
	C175.33,580.48,179.22,582.74,180.16,586.5z"/>
<path class="st0" d="M571.94,624.02l26.04-25.92c0.52-0.52,1.37-0.5,1.86,0.05l12.05,13.55c0.47,0.52,0.43,1.32-0.08,1.79
	l-26.99,24.93c-0.53,0.49-1.35,0.45-1.83-0.09l-11.1-12.56C571.44,625.27,571.46,624.5,571.94,624.02z"/>
<path class="st0" d="M409.58,683.71c43.66-8.74,85.47-25.15,122.81-49.56c6.3-4.12,12.35-8.15,18.14-12.09
	c0.81-0.55,1.53-0.45,2.16,0.29l20.82,24.3c0.21,0.25,0.17,0.63-0.1,0.83c-9.79,7.34-19.89,14.29-30.32,20.84
	c-54.15,34.06-116.66,52.08-180.5,53.84c-0.22,0.01-0.33-0.1-0.33-0.32l-0.22-15.47c-0.01-0.25,0.2-0.46,0.45-0.46l22.33-0.13
	c0.45-0.01,0.88-0.18,1.21-0.49l21.79-20.67C408.31,684.16,408.92,683.84,409.58,683.71z"/>
<path class="st1" d="M347.64,646.09l-42.3,0.11c-0.34,0.01-0.64,0.21-0.77,0.51c-3.28,7.43-11.52,9.23-18.21,5.29
	c-12.91-7.62-6.13-26.41,8.3-25.05c3.5,0.33,6.35,1.88,8.54,4.64c0.55,0.69,0.89,1.91,1.47,2.8c0.17,0.26,0.47,0.42,0.78,0.42
	c15.53,0.03,31.2-0.36,46.7,0.41c2.56,0.13,3.87-1.17,6.19-1.42c7.24-0.77,12.32,1.73,15.24,7.51c6.3,12.44-7.26,24.32-18.86,17.77
	c-4.74-2.67-6.77-6.91-6.41-12.27C348.34,646.33,348.12,646.09,347.64,646.09z"/>
<path class="st1" d="M193.4,663.27c-2-0.06-3.57-1.95-3.5-4.23c0.07-2.27,1.74-4.07,3.74-4.01c2,0.06,3.57,1.95,3.5,4.23
	C197.07,661.53,195.4,663.33,193.4,663.27z"/>
<path class="st1" d="M535.15,665.19c-1.74,0.23-3.36-1.1-3.6-2.98c-0.25-1.88,0.96-3.58,2.71-3.81c1.74-0.23,3.36,1.1,3.6,2.98
	C538.1,663.26,536.89,664.96,535.15,665.19z"/>
<path class="st1" d="M205.68,677.04c-0.12,0.31-0.43,0.49-0.76,0.44c-3-0.48-3.63-3.22-0.45-4.53c0.7-0.29,1.48,0.18,1.57,0.93
	C206.17,674.99,206.05,676.05,205.68,677.04z"/>
<path class="st1" d="M472.77,683.73c-2.43,0.13-4.51-1.88-4.65-4.5c-0.15-2.62,1.71-4.84,4.14-4.97c2.43-0.13,4.51,1.88,4.65,4.5
	C477.05,681.38,475.19,683.6,472.77,683.73z"/>
<path class="st1" d="M246.96,688.27c-2.15,0.86-4.65-0.33-5.59-2.66c-0.95-2.34,0.03-4.93,2.18-5.8c2.15-0.86,4.65,0.33,5.59,2.66
	C250.08,684.81,249.1,687.4,246.96,688.27z"/>
</svg>
